<svg xmlns="http://www.w3.org/2000/svg" viewBox="0 0 50 50" id="clip"><path d="M12.866 47.24c3.1 0 6.015-1.207 8.207-3.399l24.894-24.894c3.698-3.698 3.698-9.716 0-13.414-3.697-3.698-9.717-3.698-13.414 0L10.418 27.668c-1.391 1.391-2.157 3.241-2.158 5.208s.765 3.816 2.156 5.207 3.24 2.157 5.208 2.157a7.315 7.315 0 0 0 5.207-2.157l18.136-18.136-1.414-1.414-18.136 18.136a5.33 5.33 0 0 1-3.795 1.571c-1.433 0-2.779-.558-3.792-1.571s-1.57-2.36-1.57-3.792a5.343 5.343 0 0 1 1.572-3.795L33.967 6.947c2.918-2.918 7.668-2.918 10.586 0s2.918 7.667 0 10.586L19.659 42.427a9.546 9.546 0 0 1-6.793 2.813c-5.297 0-9.606-4.31-9.606-9.606 0-2.566.999-4.979 2.813-6.793L28.967 5.947l-1.414-1.414L4.659 27.427a11.527 11.527 0 0 0-3.399 8.207c0 6.399 5.207 11.606 11.606 11.606z"></path></svg>