<svg width="10" height="16" viewBox="0 0 10 16" fill="none" xmlns="http://www.w3.org/2000/svg">
<path fill-rule="evenodd" clip-rule="evenodd" d="M2 4C2 1.79086 3.79086 0 6 0C8.20914 0 10 1.79086 10 4V11C10 13.7614 7.76142 16 5 16C2.23858 16 0 13.7614 0 11V4.5C0 4.22386 0.223858 4 0.5 4C0.776142 4 1 4.22386 1 4.5V11C1 13.2091 2.79086 15 5 15C7.20914 15 9 13.2091 9 11V4C9 2.34315 7.65685 1 6 1C4.34315 1 3 2.34315 3 4V10C3 11.1046 3.89543 12 5 12C6.10457 12 7 11.1046 7 10V5C7 4.44772 6.55228 4 6 4C5.44772 4 5 4.44772 5 5V8.5C5 8.77614 4.77614 9 4.5 9C4.22386 9 4 8.77614 4 8.5V5C4 3.89543 4.89543 3 6 3C7.10457 3 8 3.89543 8 5V10C8 11.6569 6.65685 13 5 13C3.34315 13 2 11.6569 2 10V4Z" fill="#fff"/>
</svg>
