<?xml version="1.0" encoding="UTF-8"?>
<svg xmlns="http://www.w3.org/2000/svg" xmlns:xlink="http://www.w3.org/1999/xlink" width="24px" height="24px" viewBox="0 0 24 24" version="1.1">
<g id="surface1">
<path style=" stroke:none;fill-rule:evenodd;fill:rgb(0%,0%,0%);fill-opacity:1;" d="M 11.578125 8.5 C 11.578125 8.761719 11.789062 8.96875 12.046875 8.96875 C 12.308594 8.96875 12.519531 8.761719 12.519531 8.5 C 12.519531 8.242188 12.308594 8.03125 12.046875 8.03125 C 11.789062 8.03125 11.578125 8.242188 11.578125 8.5 Z M 12.046875 7.328125 C 11.398438 7.328125 10.871094 7.851562 10.871094 8.5 C 10.871094 9.148438 11.398438 9.675781 12.046875 9.675781 C 12.695312 9.675781 13.222656 9.148438 13.222656 8.5 C 13.222656 7.851562 12.695312 7.328125 12.046875 7.328125 Z M 11.578125 12.023438 C 11.578125 12.28125 11.789062 12.492188 12.046875 12.492188 C 12.308594 12.492188 12.519531 12.28125 12.519531 12.023438 C 12.519531 11.765625 12.308594 11.554688 12.046875 11.554688 C 11.789062 11.554688 11.578125 11.765625 11.578125 12.023438 Z M 12.046875 10.847656 C 11.398438 10.847656 10.871094 11.375 10.871094 12.023438 C 10.871094 12.671875 11.398438 13.199219 12.046875 13.199219 C 12.695312 13.199219 13.222656 12.671875 13.222656 12.023438 C 13.222656 11.375 12.695312 10.847656 12.046875 10.847656 Z M 11.578125 15.546875 C 11.578125 15.804688 11.789062 16.015625 12.046875 16.015625 C 12.308594 16.015625 12.519531 15.804688 12.519531 15.546875 C 12.519531 15.285156 12.308594 15.078125 12.046875 15.078125 C 11.789062 15.078125 11.578125 15.285156 11.578125 15.546875 Z M 12.046875 14.371094 C 11.398438 14.371094 10.871094 14.898438 10.871094 15.546875 C 10.871094 16.195312 11.398438 16.71875 12.046875 16.71875 C 12.695312 16.71875 13.222656 16.195312 13.222656 15.546875 C 13.222656 14.898438 12.695312 14.371094 12.046875 14.371094 Z M 12.046875 14.371094 "/>
</g>
</svg>
