<svg xmlns="http://www.w3.org/2000/svg" width="16" height="16" viewBox="0 0 16 16" fill="none">
<path fill-rule="evenodd" clip-rule="evenodd" d="M15 8C15 11.866 11.866 15 8 15C4.13401 15 1 11.866 1 8C1 4.13401 4.13401 1 8 1C11.866 1 15 4.13401 15 8ZM16 8C16 12.4183 12.4183 16 8 16C3.58172 16 0 12.4183 0 8C0 3.58172 3.58172 0 8 0C12.4183 0 16 3.58172 16 8ZM6 6.5C6 6.77614 5.77614 7 5.5 7C5.22386 7 5 6.77614 5 6.5C5 6.22386 5.22386 6 5.5 6C5.77614 6 6 6.22386 6 6.5ZM7 6.5C7 7.32843 6.32843 8 5.5 8C4.67157 8 4 7.32843 4 6.5C4 5.67157 4.67157 5 5.5 5C6.32843 5 7 5.67157 7 6.5ZM10.5 7C10.7761 7 11 6.77614 11 6.5C11 6.22386 10.7761 6 10.5 6C10.2239 6 10 6.22386 10 6.5C10 6.77614 10.2239 7 10.5 7ZM10.5 8C11.3284 8 12 7.32843 12 6.5C12 5.67157 11.3284 5 10.5 5C9.67157 5 9 5.67157 9 6.5C9 7.32843 9.67157 8 10.5 8ZM5.17985 10.6646C5.05591 10.4402 5 10.2155 5 10H4C4 10.3939 4.10345 10.784 4.30448 11.1481C4.50549 11.512 4.80012 11.8427 5.17157 12.1213C5.543 12.3999 5.98396 12.6209 6.46927 12.7716C6.95457 12.9224 7.47471 13 8 13C8.52529 13 9.04543 12.9224 9.53073 12.7716C10.016 12.6209 10.457 12.3999 10.8284 12.1213C11.1999 11.8427 11.4945 11.512 11.6955 11.1481C11.8966 10.784 12 10.3939 12 10H11C11 10.2155 10.9441 10.4402 10.8201 10.6646C10.6951 10.8911 10.5 11.1177 10.2284 11.3213C9.95674 11.5251 9.62043 11.6966 9.23406 11.8167C8.84803 11.9366 8.42811 12 8 12C7.57189 12 7.15197 11.9366 6.76594 11.8167C6.37957 11.6966 6.04326 11.5251 5.77157 11.3213C5.50005 11.1177 5.30493 10.8911 5.17985 10.6646Z" fill="#fff"/>
</svg>